<svg xmlns="http://www.w3.org/2000/svg" viewBox="0 0 219 177" width="219" height="177">
<g transform="translate(0,177) scale(0.1,-0.1)" fill="currentColor" stroke="none">
<path d="M880 1584 c-256 -67 -431 -315 -390 -552 28 -160 120 -271 256 -307 130 -34 259 33 294 153 11 41 7 40 -18 -2 -59 -99 -231 -101 -306 -3 -64 83 -54 196 25 277 60 62 117 85 214 85 71 0 87 -4 148 -34 75 -38 97 -58 51 -47 -82 20 -77 21 -69 -5 13 -42 52 -85 92 -101 90 -37 92 -39 41 -35 -40 4 -47 1 -56 -19 -17 -37 -31 -130 -40 -274 -11 -164 -32 -217 -126 -317 l-61 -66 60 31 c157 79 315 203 352 276 15 30 14 30 -28 -10 -24 -23 -64 -54 -88 -69 -37 -23 -30 -14 42 57 72 70 87 90 92 123 l7 40 78 0 79 0 12 -44 c12 -44 102 -152 115 -139 3 3 -3 23 -14 45 -11 21 -23 58 -27 82 l-7 44 36 -7 c40 -8 76 6 76 29 0 8 5 15 10 15 13 0 13 76 0 100 -6 11 -58 62 -116 114 l-105 94 -4 59 c-5 67 -32 153 -68 209 -35 57 -128 138 -190 167 -101 48 -255 61 -367 31z m160 -12 c0 -13 -38 -46 -55 -48 -19 -3 -19 1 1 31 15 23 54 35 54 17z m80 -12 c0 -14 -35 -37 -59 -38 l-24 -1 28 29 c24 25 55 31 55 10z m-170 -4 c0 -16 -17 -31 -47 -40 -23 -7 -23 -7 -5 23 17 31 52 43 52 17z m246 -8 c10 -16 -32 -47 -56 -41 -20 5 -20 6 2 28 26 26 44 30 54 13z m-338 -15 c-3 -18 -58 -53 -71 -46 -11 7 -107 -72 -146 -120 -47 -59 -90 -153 -100 -223 -8 -53 -9 -55 -10 -18 -3 98 73 252 160 328 40 34 142 94 162 96 5 0 7 -8 5 -17z m406 -9 c9 -3 16 -10 16 -15 0 -16 -55 -37 -87 -32 l-33 5 43 23 c23 12 43 23 44 24 1 0 8 -2 17 -5z m65 -48 c13 -15 9 -20 -33 -36 -18 -6 -25 -6 -21 0 3 6 -4 10 -17 10 -20 1 -19 3 12 20 43 23 45 24 59 6z m54 -51 c7 -16 3 -20 -36 -29 -19 -4 -26 -3 -22 4 4 6 -5 10 -22 11 -27 1 -27 1 5 9 18 4 36 10 39 14 11 11 31 6 36 -9z m-288 -53 c72 -36 136 -100 164 -162 19 -40 28 -90 17 -90 -14 0 -36 14 -36 23 0 6 -12 28 -27 50 -36 52 -176 152 -146 105 4 -7 -6 -4 -22 6 -18 12 -30 15 -33 8 -2 -7 -14 -7 -35 -1 -18 5 -54 9 -82 10 -45 0 -47 1 -25 11 45 19 171 13 226 -11 45 -19 47 -20 24 -2 -14 11 -49 27 -79 37 -113 35 -248 -2 -330 -91 -47 -52 -53 -46 -13 13 84 126 255 167 397 94z m333 -14 c4 -23 -41 -24 -89 -4 l-34 14 40 5 c63 6 80 3 83 -15z m32 -64 c0 -16 -55 -20 -65 -4 -3 6 -16 11 -28 12 -12 0 1 4 28 7 57 7 65 6 65 -15z m15 -72 c1 -19 -3 -23 -24 -20 -14 2 -24 7 -21 11 3 5 -8 15 -25 23 -30 13 -30 13 19 11 44 -2 50 -5 51 -25z m3 -77 c14 -14 -10 -14 -39 0 l-34 15 34 -5 c19 -3 37 -7 39 -10z m-248 -37 c24 -13 50 -33 58 -46 14 -21 9 -20 -54 14 -38 20 -73 41 -78 46 -20 17 31 7 74 -14z m295 -33 c17 -13 66 -58 110 -100 55 -53 73 -75 58 -72 -29 6 -31 -19 -3 -28 13 -4 20 -15 20 -31 0 -22 -3 -24 -22 -19 -33 9 -72 40 -76 57 -2 9 4 23 13 32 15 15 15 16 0 16 -9 0 -13 5 -10 10 4 6 -9 10 -31 10 -31 0 -35 2 -24 15 11 13 8 15 -15 15 -22 0 -25 3 -16 14 9 11 5 15 -19 19 -16 4 -39 16 -50 27 -11 11 -31 20 -44 20 -27 0 -51 24 -41 40 12 19 116 1 150 -25z m-80 -55 c3 -6 -5 -10 -19 -10 -14 0 -28 5 -31 10 -3 6 5 10 19 10 14 0 28 -4 31 -10z"/>
<path d="M1440 758 c0 -4 9 -30 20 -58 67 -169 -20 -293 -279 -400 -41 -16 -77 -30 -80 -30 -3 0 30 20 74 43 176 93 256 178 270 288 5 44 5 44 -6 10 -35 -114 -152 -198 -456 -329 -143 -62 -261 -127 -251 -138 2 -2 28 5 56 16 29 11 52 19 52 17 0 -2 -22 -19 -48 -39 -26 -21 -63 -58 -81 -83 -32 -44 -33 -58 -2 -31 39 35 152 80 264 107 67 15 171 39 230 53 221 51 338 137 362 269 8 40 -26 170 -47 183 -8 5 -9 2 -3 -12 15 -36 17 -122 5 -160 -26 -76 -113 -149 -241 -199 -94 -37 -95 -30 -2 15 102 50 183 122 212 191 33 76 26 176 -17 244 -17 28 -32 47 -32 43z"/>
<path d="M1366 612 c-36 -69 -190 -179 -391 -280 -66 -33 -131 -69 -145 -81 l-25 -21 45 16 c303 113 479 236 530 368 13 35 4 33 -14 -2z"/>
</g>
</svg>
